<?xml version="1.0" standalone="no"?><!DOCTYPE svg PUBLIC "-//W3C//DTD SVG 1.1//EN" "http://www.w3.org/Graphics/SVG/1.1/DTD/svg11.dtd"><svg t="1604492348516" class="icon" viewBox="0 0 1024 1024" version="1.1" xmlns="http://www.w3.org/2000/svg" p-id="5851" xmlns:xlink="http://www.w3.org/1999/xlink" width="200" height="200"><defs><style type="text/css"></style></defs><path d="M924.4 337.9c-22.5-53.3-54.8-101-95.9-142.1-41.1-41.1-89-73.3-142.3-95.8C631.1 76.6 572.4 64.8 512 64.8c-60.4 0-119.1 11.8-174.3 35.2-53.3 22.4-101.2 54.8-142.3 95.8S122 284.6 99.5 337.9C76.2 393 64.4 451.7 64.4 512s11.8 119 35.2 174.1c22.5 53.3 54.8 101.1 95.9 142.1 41.1 41.1 89 73.3 142.3 95.8 55.2 23.4 113.8 35.2 174.3 35.2 60.4 0 119.1-11.8 174.2-35.2 53.3-22.4 101.2-54.8 142.3-95.8 41.1-41 73.4-88.9 95.9-142.1 23.3-55.1 35.2-113.7 35.2-174.1-0.1-60.3-11.9-119-35.3-174.1zM513.1 896.3c-210.9 0-382.5-171.4-382.5-382.1 0-210.7 171.6-382.1 382.5-382.1s382.5 171.4 382.5 382.1c0 210.7-171.6 382.1-382.5 382.1z m-1.1-7" p-id="5852"></path><path d="M733.6 476.6h-187V289.8c0-19.3-15.7-34.9-35-34.9s-35 15.6-35 34.9v186.8h-187c-19.3 0-35 15.6-35 34.9 0 19.3 15.7 34.9 35 34.9h187v186.8c0 19.3 15.7 34.9 35 34.9s35-15.6 35-34.9V546.5h187c19.3 0 35-15.6 35-34.9 0-19.3-15.7-35-35-35z m0 0" p-id="5853"></path></svg>