<?xml version="1.0" standalone="no"?><!DOCTYPE svg PUBLIC "-//W3C//DTD SVG 1.1//EN" "http://www.w3.org/Graphics/SVG/1.1/DTD/svg11.dtd"><svg t="1602831894941" class="icon" viewBox="0 0 1024 1024" version="1.1" xmlns="http://www.w3.org/2000/svg" p-id="1500" xmlns:xlink="http://www.w3.org/1999/xlink" width="200" height="200"><defs><style type="text/css"></style></defs><path d="M554.666667 469.333333h213.333333a42.666667 42.666667 0 0 1 0 85.333334h-213.333333v213.333333a42.666667 42.666667 0 0 1-85.333334 0v-213.333333H256a42.666667 42.666667 0 0 1 0-85.333334h213.333333V256a42.666667 42.666667 0 0 1 85.333334 0v213.333333z m-42.666667 554.666667C229.248 1024 0 794.752 0 512S229.248 0 512 0s512 229.248 512 512-229.248 512-512 512z m0-85.333333c235.648 0 426.666667-191.018667 426.666667-426.666667S747.648 85.333333 512 85.333333 85.333333 276.352 85.333333 512s191.018667 426.666667 426.666667 426.666667z" p-id="1501"></path></svg>