<?xml version="1.0" standalone="no"?><!DOCTYPE svg PUBLIC "-//W3C//DTD SVG 1.1//EN" "http://www.w3.org/Graphics/SVG/1.1/DTD/svg11.dtd"><svg t="1604395872675" class="icon" viewBox="0 0 1024 1024" version="1.1" xmlns="http://www.w3.org/2000/svg" p-id="30041" xmlns:xlink="http://www.w3.org/1999/xlink" width="200" height="200"><defs><style type="text/css"></style></defs><path d="M865.8 362.5c-19.3-45.7-47-86.8-82.3-122-35.3-35.3-76.3-62.9-122-82.3-47.4-20-97.7-30.2-149.5-30.2s-102.1 10.2-149.5 30.2c-45.7 19.3-86.8 47-122 82.3-35.3 35.3-62.9 76.3-82.3 122-20 47.4-30.2 97.7-30.2 149.5s10.2 102.1 30.2 149.5c19.3 45.7 47 86.8 82.3 122 35.3 35.3 76.3 62.9 122 82.3 47.4 20 97.7 30.2 149.5 30.2s102.1-10.2 149.5-30.2c45.7-19.3 86.8-47 122-82.3 35.3-35.3 62.9-76.3 82.3-122 20-47.4 30.2-97.7 30.2-149.5s-10.2-102.1-30.2-149.5zM512 832c-176.4 0-320-143.6-320-320s143.6-320 320-320 320 143.6 320 320-143.6 320-320 320z" p-id="30042"></path><path d="M640 480h-96v-96c0-17.7-14.3-32-32-32s-32 14.3-32 32v96h-96c-17.7 0-32 14.3-32 32s14.3 32 32 32h96v96c0 17.7 14.3 32 32 32s32-14.3 32-32v-96h96c17.7 0 32-14.3 32-32s-14.3-32-32-32z" p-id="30043"></path></svg>