<?xml version="1.0" standalone="no"?><!DOCTYPE svg PUBLIC "-//W3C//DTD SVG 1.1//EN"
        "http://www.w3.org/Graphics/SVG/1.1/DTD/svg11.dtd">
<svg t="1602581224723" class="icon" viewBox="0 0 1024 1024" version="1.1" xmlns="http://www.w3.org/2000/svg" p-id="7540"
     width="200" height="200" xmlns:xlink="http://www.w3.org/1999/xlink">
    <defs>
        <style type="text/css"></style>
    </defs>
    <path d="M853.333333 85.333333a64 64 0 0 1 64 64v725.333334a64 64 0 0 1-64 64H256a64 64 0 0 1-64-64v-128H160a32 32 0 0 1 0-64H192v-128H160a32 32 0 0 1 0-64H192v-128H160a32 32 0 0 1 0-64H192V149.333333a64 64 0 0 1 64-64h597.333333z m-21.333333 64H277.333333a21.333333 21.333333 0 0 0-21.184 18.837334L256 170.666667v682.666666a21.333333 21.333333 0 0 0 18.837333 21.184L277.333333 874.666667h554.666667a21.333333 21.333333 0 0 0 21.184-18.837334L853.333333 853.333333V170.666667a21.333333 21.333333 0 0 0-21.333333-21.333334z m-137.365333 158.72a32 32 0 0 1 0 45.248l-72.832 72.810667H693.333333a32 32 0 0 1 0 64h-108.074666v64H693.333333a32 32 0 0 1 0 64h-108.074666V736a32 32 0 0 1-64 0v-117.888H416a32 32 0 1 1 0-64h105.258667v-64H416a32 32 0 1 1 0-64h72.192l-72.810667-72.810667a32 32 0 0 1 45.248-45.269333l94.357334 94.378667 94.4-94.357334a32 32 0 0 1 45.248 0z"
          fill="#2c2c2c" p-id="7541"></path>
</svg>