<?xml version="1.0" standalone="no"?><!DOCTYPE svg PUBLIC "-//W3C//DTD SVG 1.1//EN" "http://www.w3.org/Graphics/SVG/1.1/DTD/svg11.dtd"><svg t="1601453566656" class="icon" viewBox="0 0 1024 1024" version="1.1" xmlns="http://www.w3.org/2000/svg" p-id="604" xmlns:xlink="http://www.w3.org/1999/xlink" width="200" height="200"><defs><style type="text/css"></style></defs><path d="M220.242 509.983c0.001 0.311 0.013 0.622 0.018 0.933 0.162 23.974 9.386 47.811 27.743 65.903 0.084 0.08200001 0.172 0.157 0.256 0.239 0.154 0.154 0.296 0.315 0.45100001 0.468L606.139 929.904c37.685 37.153 99.034 37.476 136.331 0.71799999 37.297-36.758 36.979-97.231-0.707-134.38399998l-290.36100001-286.25700001 290.36200001-286.257c37.685-37.153 38.004-97.625 0.707-134.383-37.297-36.758-98.646-36.435-136.331 0.718l-357.43 352.378c-0.155 0.153-0.29699999 0.314-0.451 0.468-0.084 0.08200001-0.172 0.157-0.256 0.239-18.354 18.089-27.578 41.922-27.743 65.892-0.004 0.315-0.017 0.63099999-0.018 0.947z" p-id="605"></path></svg>