<?xml version="1.0" standalone="no"?><!DOCTYPE svg PUBLIC "-//W3C//DTD SVG 1.1//EN" "http://www.w3.org/Graphics/SVG/1.1/DTD/svg11.dtd"><svg t="1603524549278" class="icon" viewBox="0 0 1024 1024" version="1.1" xmlns="http://www.w3.org/2000/svg" p-id="46187" xmlns:xlink="http://www.w3.org/1999/xlink" width="200" height="200"><defs><style type="text/css"></style></defs><path d="M509.272751 0C228.008902 0 0 228.010065 0 509.272751 0 790.536599 228.008902 1018.546665 509.272751 1018.546665 790.537763 1018.546665 1018.544337 790.536599 1018.544337 509.272751 1018.544337 228.010065 790.537763 0 509.272751 0L509.272751 0ZM366.875043 214.825693C379.621015 204.420532 402.673315 222.167913 417.263569 219.154979 430.107223 216.4688 433.494598 209.000989 448.930246 199.166784 461.07968 191.547805 479.600361 194.460736 486.673961 202.478575 493.844084 210.46734 506.787741 218.0619 506.787741 218.0619 506.787741 218.0619 510.969344 217.565364 521.824529 207.034612 532.780881 196.579444 542.63602 190.480308 560.959017 197.423674 579.282013 204.270522 581.870511 219.857332 600.39584 219.558481 619.168855 219.209629 625.784297 205.989213 642.018822 212.388364 660.690671 219.781748 653.176343 242.782883 638.580276 251.969379 621.157329 263.097833 613.289495 274.970513 604.077417 287.418799 594.717655 299.892672 579.38318 315.648099 579.38318 315.648099L434.091142 315.648099C434.091142 315.648099 416.267008 297.500695 406.609553 283.486051 396.998615 269.44466 384.500329 258.71506 373.048599 250.528611 361.596876 242.184017 354.179066 225.15527 366.875043 214.825693L366.875043 214.825693ZM753.003357 663.673373C736.873489 758.321059 652.326307 835.788823 508.181999 835.788823 359.356067 835.788823 280.839412 742.191191 265.751459 659.687133 248.772713 566.933725 293.879587 489.534569 349.547444 441.14265 398.045178 399.095232 428.417606 353.962775 428.417606 353.962775L586.754473 353.962775C586.754473 353.962775 615.827997 397.07769 669.90624 442.4869 715.908503 481.120198 772.722932 548.087453 753.003357 663.673373L753.003357 663.673373ZM582.172852 611.942918C595.714217 612.090601 600.495849 605.071651 600.7947 596.607284 600.992384 589.189475 594.07111 575.448099 581.874001 575.098083L527.799244 575.098083 527.799244 562.08C527.799244 562.08 568.825681 520.204684 579.483183 510.572812 590.086033 500.864198 592.725696 493.245213 586.150953 485.402967 579.5797 477.38862 567.82912 477.909574 559.263581 485.004113 550.602694 492.224233 508.67737 531.109871 508.67737 531.109871 508.67737 531.109871 472.72793 494.017344 464.962426 486.571631 457.943476 479.851532 443.155543 473.279116 435.187706 482.340026 426.824506 491.799796 433.296913 503.575953 438.473914 508.728535 443.70208 513.85902 488.661271 561.433455 488.661271 561.433455L488.564753 575.74695 432.300358 575.74695C423.933667 575.74695 416.565859 590.532561 416.763543 598.449233 417.112401 606.26706 423.335959 612.440617 432.300358 612.440617 441.062417 612.440617 488.36242 612.091764 488.36242 612.091764L488.265903 652.020474 429.909539 652.020474C421.642857 652.020474 414.5739 660.337164 414.276212 668.304995 413.977361 676.122822 420.499776 686.826839 429.909539 686.826839L488.1659 686.826839C488.1659 686.826839 488.065891 700.464721 488.363584 706.188259 489.262464 718.892369 497.524497 724.115887 508.678534 724.263564 519.83257 724.418223 527.700404 715.152652 527.700404 706.791773 527.700404 699.918179 527.501556 686.826839 527.501556 686.826839 527.501556 686.826839 575.994641 686.775674 585.110208 686.826839 594.322287 686.923357 601.092387 677.614755 600.793536 668.304995 600.494685 658.84174 594.719983 651.57394 580.87744 651.57394L527.79808 651.57394 528.096937 612.091764 582.172852 611.942918 582.172852 611.942918Z" p-id="46188"></path></svg>