<?xml version="1.0" standalone="no"?><!DOCTYPE svg PUBLIC "-//W3C//DTD SVG 1.1//EN" "http://www.w3.org/Graphics/SVG/1.1/DTD/svg11.dtd"><svg t="1604394889184" class="icon" viewBox="0 0 1024 1024" version="1.1" xmlns="http://www.w3.org/2000/svg" p-id="26849" xmlns:xlink="http://www.w3.org/1999/xlink" width="200" height="200"><defs><style type="text/css"></style></defs><path d="M750.732088 77.053263H273.267912c-108.161087 0-196.163486 88.002398-196.163485 196.163485v477.464175c0 108.161087 88.002398 196.163486 196.163485 196.163486v0.102328h477.464176c108.161087 0 196.163486-88.002398 196.163485-196.163485v-477.566504c0-108.161087-88.002398-196.163486-196.163485-196.163485z m113.072849 676.083541c0 60.987709-49.62926 110.616968-110.616969 110.616968H270.812032c-60.987709 0-110.616968-49.62926-110.616969-110.616968v-482.375937c0-60.987709 49.62926-110.616968 110.616969-110.616968H753.187968c60.987709 0 110.616968 49.62926 110.616969 110.616968v482.375937z" p-id="26850"></path><path d="M708.572799 324.380933c-32.540422 0-58.941141 25.172779-58.941141 56.280604 0 11.767763 3.78615 22.716898 10.232837 31.721795L555.182572 587.160188c-1.330269-0.102328-2.558209-0.102328-3.888478-0.102329-1.739582 0-3.479165 0.102328-5.116418 0.204657L482.836415 486.469072c6.037374-8.80024 9.516538-19.340062 9.516538-30.698511 0-31.107825-26.400719-56.280604-58.941141-56.280604s-58.941141 25.172779-58.941141 56.280604c0 11.358449 3.581493 21.898271 9.516538 30.698511l-63.341261 100.793444c-1.739582-0.102328-3.376836-0.204657-5.116419-0.204657-32.540422 0-58.941141 25.172779-58.941141 56.280604s26.605376 56.280604 59.145798 56.280604c32.540422 0 58.941141-25.172779 58.941141-56.280604 0-11.358449-3.479165-21.898271-9.516538-30.698511l63.341261-100.793445c1.739582 0.102328 3.376836 0.204657 5.116418 0.204657 1.739582 0 3.479165-0.102328 5.116419-0.204657l63.341261 100.793445c-6.037374 8.80024-9.516538 19.340062-9.516538 30.698511 0 31.107825 26.400719 56.280604 58.941141 56.280604s58.941141-25.172779 58.941141-56.280604c0-11.767763-3.78615-22.716898-10.232837-31.721795l104.477266-174.776856c1.330269 0.102328 2.558209 0.102328 3.888478 0.102329 32.540422 0 58.941141-25.172779 58.941141-56.280604s-26.400719-56.280604-58.941141-56.280604z" p-id="26851"></path></svg>