<?xml version="1.0" standalone="no"?><!DOCTYPE svg PUBLIC "-//W3C//DTD SVG 1.1//EN" "http://www.w3.org/Graphics/SVG/1.1/DTD/svg11.dtd"><svg t="1604394171639" class="icon" viewBox="0 0 1024 1024" version="1.1" xmlns="http://www.w3.org/2000/svg" p-id="7893" xmlns:xlink="http://www.w3.org/1999/xlink" width="200" height="200"><defs><style type="text/css"></style></defs><path d="M711.111 910.222H312.89v28.445a28.444 28.444 0 0 1-56.889 0v-31.29A142.28 142.28 0 0 1 142.222 768V227.556A142.222 142.222 0 0 1 284.444 85.333h455.112a142.222 142.222 0 0 1 142.222 142.223V768A142.28 142.28 0 0 1 768 907.378v31.289a28.444 28.444 0 0 1-56.889 0v-28.445z m113.778-455.11V227.555a85.333 85.333 0 0 0-85.333-85.334H284.444a85.333 85.333 0 0 0-85.333 85.334V455.11H824.89z m0 56.888H199.11v256a85.333 85.333 0 0 0 85.333 85.333h455.112A85.333 85.333 0 0 0 824.889 768V512zM85.333 341.333a28.444 28.444 0 0 1 28.445 28.445v113.778a28.444 28.444 0 0 1-56.89 0V369.778a28.444 28.444 0 0 1 28.445-28.445z m853.334 0a28.444 28.444 0 0 1 28.444 28.445v113.778a28.444 28.444 0 0 1-56.889 0V369.778a28.444 28.444 0 0 1 28.445-28.445zM284.444 682.667a56.889 56.889 0 1 1 0-113.778 56.889 56.889 0 0 1 0 113.778z m455.112 0a56.889 56.889 0 1 1 0-113.778 56.889 56.889 0 0 1 0 113.778z" p-id="7894"></path></svg>