<?xml version="1.0" standalone="no"?><!DOCTYPE svg PUBLIC "-//W3C//DTD SVG 1.1//EN" "http://www.w3.org/Graphics/SVG/1.1/DTD/svg11.dtd"><svg t="1604394837667" class="icon" viewBox="0 0 1024 1024" version="1.1" xmlns="http://www.w3.org/2000/svg" p-id="26095" xmlns:xlink="http://www.w3.org/1999/xlink" width="200" height="200"><defs><style type="text/css"></style></defs><path d="M512 465.454545a209.454545 209.454545 0 1 1 0-418.90909 209.454545 209.454545 0 0 1 0 418.90909z m0-69.818181a139.636364 139.636364 0 1 0 0-279.272728 139.636364 139.636364 0 0 0 0 279.272728z m302.545455 302.545454h-93.09091c-55.854545-69.771636-152.832-118.365091-256-116.363636-194.746182-2.001455-348.066909 144.756364-349.090909 325.818182H46.545455c0-218.507636 185.018182-395.636364 418.90909-395.636364 145.035636 0 276.875636 77.195636 349.09091 186.181818z m-256 162.909091h418.90909l-139.636363 116.363636v-46.545454H558.545455v-69.818182z m418.90909-46.545454H558.545455l139.636363-116.363637v46.545455h279.272727v69.818182z" p-id="26096"></path></svg>