<?xml version="1.0" standalone="no"?><!DOCTYPE svg PUBLIC "-//W3C//DTD SVG 1.1//EN" "http://www.w3.org/Graphics/SVG/1.1/DTD/svg11.dtd"><svg t="1604394239759" class="icon" viewBox="0 0 1024 1024" version="1.1" xmlns="http://www.w3.org/2000/svg" p-id="9895" xmlns:xlink="http://www.w3.org/1999/xlink" width="200" height="200"><defs><style type="text/css"></style></defs><path d="M930.38 436.033L604.266 97.625c-24.27-25.19-56.705-39.051-91.381-39.051-34.656 0-67.112 13.862-91.383 39.051l-34.14 35.417c-5.203-5.024-12.246-8.165-20.052-8.165H191.053c-15.97 0-28.913 12.943-28.913 28.891v212.998l-66.73 69.266c-36.875 38.244-31.962 68.457-25.75 83.06 6.19 14.601 24.539 39.096 77.676 39.096h18.011v376.405c0 15.947 12.943 28.889 28.89 28.889H831.53c15.97 0 28.89-12.942 28.89-28.89V558.19h18.012c53.138 0 71.485-24.495 77.7-39.096 6.213-14.603 11.104-44.84-25.75-83.06zM219.944 182.659H338.42v1.19l-118.477 122.94v-124.13z m393.923 723.043h-86.313V701.295h86.313v204.407z m188.773 0H671.647V672.403c0-15.948-12.92-28.889-28.89-28.889H498.64c-15.947 0-28.912 12.941-28.912 28.89v233.298h-246.6V558.189H802.64v347.513z m75.792-405.295H147.336c-13.75 0-21.152-2.535-23.978-4.15 0.807-3.118 4.106-10.227 13.66-20.142L463.134 137.73c26.512-27.567 72.966-27.567 99.5 0l326.139 338.385c9.554 9.915 12.829 17.024 13.636 20.142-2.802 1.615-10.203 4.15-23.977 4.15z" p-id="9896"></path></svg>