<?xml version="1.0" standalone="no"?><!DOCTYPE svg PUBLIC "-//W3C//DTD SVG 1.1//EN" "http://www.w3.org/Graphics/SVG/1.1/DTD/svg11.dtd"><svg t="1604396300859" class="icon" viewBox="0 0 1024 1024" version="1.1" xmlns="http://www.w3.org/2000/svg" p-id="31638" xmlns:xlink="http://www.w3.org/1999/xlink" width="200" height="200"><defs><style type="text/css"></style></defs><path d="M321.1264 452.1984c-37.1712 0-67.4816-30.3104-67.4816-67.4816s30.3104-67.4816 67.4816-67.4816 67.4816 30.3104 67.4816 67.4816-30.3104 67.4816-67.4816 67.4816zM702.8736 452.1984c-37.1712 0-67.4816-30.3104-67.4816-67.4816s30.3104-67.4816 67.4816-67.4816 67.4816 30.3104 67.4816 67.4816-30.3104 67.4816-67.4816 67.4816zM512 802.0992c-89.7024 0-180.736-45.568-232.1408-116.1216-14.5408-19.3536-25.4976-42.5984-35.2256-63.1808-3.4816-7.2704-6.5536-13.824-9.728-20.0704-6.8608-20.7872 5.4272-41.984 20.8896-49.664 4.096-1.4336 7.8848-2.048 11.5712-2.048 12.9024 0 24.3712 8.3968 31.744 22.9376 6.3488 25.2928 18.944 44.2368 31.0272 62.464 49.3568 61.8496 112.2304 94.5152 181.76 94.5152 71.9872 0 139.0592-33.4848 175.0016-87.3472 12.5952-18.944 25.1904-44.1344 31.3344-62.6688 4.9152-14.6432 17.2032-24.1664 31.4368-24.1664 4.3008 0 8.4992 0.9216 12.0832 2.7648 9.728 3.1744 17.408 10.1376 21.1968 19.1488 3.3792 8.0896 3.2768 16.896-0.3072 24.064-6.2464 31.8464-25.9072 57.9584-44.9536 83.2512C692.9408 756.5312 604.3648 802.0992 512 802.0992z" p-id="31639"></path><path d="M512 1024C229.6832 1024 0 794.3168 0 512S229.6832 0 512 0c277.504 0 512 234.496 512 512 0 282.3168-229.6832 512-512 512z m0-948.5312C271.2576 75.4688 75.4688 271.2576 75.4688 512S271.2576 948.5312 512 948.5312 948.5312 752.7424 948.5312 512 752.7424 75.4688 512 75.4688z" p-id="31640"></path></svg>