<?xml version="1.0" standalone="no"?><!DOCTYPE svg PUBLIC "-//W3C//DTD SVG 1.1//EN" "http://www.w3.org/Graphics/SVG/1.1/DTD/svg11.dtd"><svg t="1604395923153" class="icon" viewBox="0 0 1024 1024" version="1.1" xmlns="http://www.w3.org/2000/svg" p-id="30853" xmlns:xlink="http://www.w3.org/1999/xlink" width="200" height="200"><defs><style type="text/css"></style></defs><path d="M888.324 534.476L521.101 901.702c-24.826 24.796-54.868 41.024-86.592 49.067 15.004-17.522 27.491-37.211 36.812-58.652 10.264-6.015 20.092-12.94 28.872-21.718l191.08-191.063-125.843-125.87 183.587-183.578c10.492-10.493 10.492-27.508 0-38-10.493-10.475-27.491-10.475-37.984 0L527.431 515.484l-36.821-36.826v-78.29l131.797-131.783c73.413-73.426 192.47-73.426 265.918 0 73.412 73.428 73.412 192.48 0 265.892z m-397.714 93.8v-75.964l36.821-36.829 38 37.982-74.821 74.811zM266.767 960.633c-103.842 0-188.028-84.184-188.028-188.02V253.3c0-103.837 84.186-188.02 188.028-188.02s188.028 84.183 188.028 188.02v519.312c0 103.838-84.187 188.02-188.028 188.02z m151.111-700.004c0-81.803-69.303-148.115-151.111-148.115-81.807 0-152.614 66.312-152.614 148.115v270.244h72.03v259.646c0 14.83 12.032 26.86 26.86 26.86s26.862-12.03 26.862-26.86V530.873h177.972V260.629z m-204.833-16.28c14.83 0 26.86 12.013 26.86 26.859v259.665h-53.722V271.208c0-14.846 12.033-26.86 26.862-26.86z" p-id="30854"></path></svg>