<?xml version="1.0" standalone="no"?><!DOCTYPE svg PUBLIC "-//W3C//DTD SVG 1.1//EN" "http://www.w3.org/Graphics/SVG/1.1/DTD/svg11.dtd"><svg t="1604394806167" class="icon" viewBox="0 0 1024 1024" version="1.1" xmlns="http://www.w3.org/2000/svg" p-id="25545" xmlns:xlink="http://www.w3.org/1999/xlink" width="200" height="200"><defs><style type="text/css"></style></defs><path d="M879.99063 568.564273 740.10058 568.564273l-55.225789-196.279339-283.302321 0-55.258535 196.279339L204.177728 568.564273l-57.297984 203.6277 392.510582 0 5.403057 0 392.509559 0L879.99063 568.564273 879.99063 568.564273zM434.278359 415.462317 434.278359 415.462317l217.891566 0 32.992415 117.265774L401.269571 532.72809 434.278359 415.462317 434.278359 415.462317zM203.874829 729.015615 203.874829 729.015615l33.007765-117.26475 217.891566 0 33.007765 117.26475L203.874829 729.015615 203.874829 729.015615zM542.083667 762.581082 542.083667 762.581082l-52.532447-186.667423 105.081267 0L542.083667 762.581082 542.083667 762.581082zM629.394199 611.751888 629.394199 611.751888l217.891566 0 33.008788 117.26475L596.385411 729.016639 629.394199 611.751888z" p-id="25546"></path><path d="M664.632771 268.846074c0.797156-10.175757 9.706059-17.778922 19.875676-16.981766 10.183943 0.797156 17.787108 9.698896 16.989953 19.882839l-4.064572 50.579979c-0.796132 10.17678-9.706059 17.779945-19.874653 16.98279-10.183943-0.797156-17.787108-9.698896-16.990976-19.874653L664.632771 268.846074z" p-id="25547"></path><path d="M750.906693 273.388531c4.590552-9.100262 15.699564-12.766768 24.799826-8.176217 9.101285 4.589528 12.766768 15.69854 8.176217 24.799826l-27.254737 53.719482c-4.589528 9.101285-15.699564 12.758582-24.799826 8.16803-9.101285-4.589528-12.766768-15.690354-8.175193-24.791639L750.906693 273.388531z" p-id="25548"></path><path d="M868.05274 356.196515c7.140631-7.268544 18.838044-7.363711 26.106588-0.223081 7.252171 7.147794 7.348362 18.839067 0.207731 26.098401l-48.818869 49.735751c-7.141654 7.260357-18.823718 7.355525-26.091238 0.214894-7.268544-7.140631-7.362688-18.830881-0.223081-26.098401L868.05274 356.196515z" p-id="25549"></path><path d="M185.386756 454.510658c-4.828982-8.981559-1.466398-20.185738 7.523347-25.01472 8.973372-4.837168 20.177552-1.466398 25.007557 7.515161l24.067138 44.682665c4.828982 8.981559 1.466398 20.185738-7.523347 25.01472-8.973372 4.830005-20.177552 1.458211-25.007557-7.523347L185.386756 454.510658z" p-id="25550"></path><path d="M117.330754 504.356926c-7.857968-6.462179-9.005095-18.088984-2.534729-25.955138 6.455015-7.857968 18.090007-8.988722 25.946952-2.526543l46.556339 38.228673c7.856945 6.453992 8.988722 18.081821 2.533706 25.945929-6.470365 7.860015-18.090007 8.990768-25.946952 2.527566L117.330754 504.356926z" p-id="25551"></path></svg>