<?xml version="1.0" standalone="no"?><!DOCTYPE svg PUBLIC "-//W3C//DTD SVG 1.1//EN" "http://www.w3.org/Graphics/SVG/1.1/DTD/svg11.dtd"><svg t="1604394358525" class="icon" viewBox="0 0 1024 1024" version="1.1" xmlns="http://www.w3.org/2000/svg" p-id="13046" xmlns:xlink="http://www.w3.org/1999/xlink" width="200" height="200"><defs><style type="text/css"></style></defs><path d="M954.054645 724.63388L615.519126 302.163934v-19.584699C615.519126 131.497268 492.415301 8.393443 341.333333 8.393443S67.147541 131.497268 67.147541 282.579235s123.103825 274.185792 274.185792 274.185792h19.5847l419.672131 338.535519c5.595628 5.595628 11.191257 5.595628 19.584699 5.595629 8.393443 0 16.786885-2.797814 22.382514-8.393443l25.180328-25.180328c0 8.393443 0 19.584699-5.595628 27.978142-8.393443 22.382514-25.180328 39.169399-55.956285 50.360656-33.57377 13.989071-86.73224-11.191257-148.284153-39.169399-111.912568-53.15847-265.79235-125.901639-430.863388 5.595629-13.989071 11.191257-16.786885 30.775956-5.595628 41.967213 11.191257 13.989071 30.775956 16.786885 41.967213 5.595628 134.295082-106.31694 257.398907-47.562842 366.513661 2.797814 53.15847 25.180328 103.519126 47.562842 151.081967 47.562842 16.786885 0 30.775956-2.797814 44.765028-8.393443 44.765027-19.584699 75.540984-47.562842 89.530054-86.73224 13.989071-39.169399 8.393443-78.338798 0-103.519126l53.15847-53.15847c13.989071-5.595628 13.989071-22.382514 5.595629-33.57377M125.901639 282.579235c0-117.508197 95.125683-215.431694 215.431694-215.431694 117.508197 0 215.431694 95.125683 215.431694 215.431694 0 117.508197-95.125683 215.431694-215.431694 215.431694-120.306011 0-215.431694-95.125683-215.431694-215.431694m671.47541 551.169399L436.459016 542.775956c75.540984-27.978142 134.295082-86.73224 162.273224-162.273224l290.972678 360.918033-44.765027 41.967213c-2.797814 2.797814-8.393443 5.595628-8.393443 8.393443l-39.169399 41.967213z" p-id="13047"></path><path d="M612.721311 517.595628c-11.191257-11.191257-30.775956-11.191257-41.967213 0-11.191257 11.191257-11.191257 30.775956 0 41.967214l67.147541 67.147541c5.595628 5.595628 13.989071 8.393443 22.382514 8.393442 8.393443 0 16.786885-2.797814 22.382514-8.393442 11.191257-11.191257 11.191257-30.775956 0-41.967214l-69.945356-67.147541z" p-id="13048"></path></svg>