<?xml version="1.0" standalone="no"?><!DOCTYPE svg PUBLIC "-//W3C//DTD SVG 1.1//EN" "http://www.w3.org/Graphics/SVG/1.1/DTD/svg11.dtd"><svg t="1604394332248" class="icon" viewBox="0 0 1024 1024" version="1.1" xmlns="http://www.w3.org/2000/svg" p-id="12214" xmlns:xlink="http://www.w3.org/1999/xlink" width="200" height="200"><defs><style type="text/css"></style></defs><path d="M917.2992 124.8256a61.44 61.44 0 0 0-53.8624-11.0592l-334.9504 87.6544a63.5904 63.5904 0 0 0-47.2064 61.44v583.3728L144.6912 757.76a2.3552 2.3552 0 0 1-1.3312-2.2528v-566.272c0-0.9216 0-1.6384 1.7408-2.3552l229.4784 60.0064a30.72 30.72 0 0 0 15.5648-59.392l-229.5808-60.0064a61.44 61.44 0 0 0-53.8624 11.0592 63.5904 63.5904 0 0 0-24.7808 51.2v566.1696a63.5904 63.5904 0 0 0 47.2064 61.44L542.72 925.7984V263.168a2.3552 2.3552 0 0 1 1.3312-2.3552l335.6672-87.4496a2.4576 2.4576 0 0 1 0.9216 2.048v587.264a2.3552 2.3552 0 0 1-1.3312 2.3552l-241.9712 63.2832a30.72 30.72 0 1 0 15.5648 59.392l241.9712-63.2832a63.6928 63.6928 0 0 0 47.2064-61.44V175.616a63.5904 63.5904 0 0 0-24.7808-50.7904z" p-id="12215"></path><path d="M648.4992 435.5072h136.6016a30.72 30.72 0 0 0 0-61.44H648.4992a30.72 30.72 0 0 0 0 61.44zM648.4992 619.8272h136.6016a30.72 30.72 0 0 0 0-61.44H648.4992a30.72 30.72 0 0 0 0 61.44zM389.12 374.0672H252.6208a30.72 30.72 0 0 0 0 61.44H389.12a30.72 30.72 0 0 0 0-61.44zM389.12 558.3872H252.6208a30.72 30.72 0 0 0 0 61.44H389.12a30.72 30.72 0 0 0 0-61.44z" p-id="12216"></path></svg>