<?xml version="1.0" standalone="no"?><!DOCTYPE svg PUBLIC "-//W3C//DTD SVG 1.1//EN" "http://www.w3.org/Graphics/SVG/1.1/DTD/svg11.dtd"><svg t="1604394590970" class="icon" viewBox="0 0 1024 1024" version="1.1" xmlns="http://www.w3.org/2000/svg" p-id="20941" xmlns:xlink="http://www.w3.org/1999/xlink" width="200" height="200"><defs><style type="text/css"></style></defs><path d="M723.626667 904.533333h-10.24l-146.773334-20.48c-37.546667-5.12-75.093333-5.12-112.64 0l-146.773333 20.48c-51.2 3.413333-98.986667-22.186667-122.88-66.56-25.6-44.373333-22.186667-98.986667 8.533333-139.946666l87.04-121.173334c54.613333-75.093333 139.946667-119.466667 232.106667-119.466666 93.866667 0 177.493333 42.666667 232.106667 119.466666l87.04 121.173334c30.72 40.96 34.133333 95.573333 8.533333 139.946666-25.6 40.96-68.266667 66.56-116.053333 66.56z m-5.12-47.786666c32.426667 1.706667 61.44-13.653333 78.506666-42.666667 15.36-29.013333 13.653333-63.146667-5.12-88.746667l-87.04-121.173333c-46.08-63.146667-116.053333-98.986667-192.853333-98.986667-78.506667 0-148.48 35.84-192.853333 98.986667l-87.04 121.173333c-18.773333 27.306667-20.48 59.733333-5.12 88.746667 15.36 29.013333 44.373333 44.373333 78.506666 42.666667l145.066667-20.48c42.666667-6.826667 83.626667-6.826667 126.293333 0l141.653334 20.48zM191.146667 544.426667c-64.853333 0-116.053333-52.906667-116.053334-116.053334s52.906667-116.053333 116.053334-116.053333 116.053333 52.906667 116.053333 116.053333-52.906667 116.053333-116.053333 116.053334z m0-184.32c-37.546667 0-68.266667 30.72-68.266667 68.266666s30.72 68.266667 68.266667 68.266667 68.266667-30.72 68.266666-68.266667-30.72-68.266667-68.266666-68.266666zM377.173333 353.28c-64.853333 0-116.053333-52.906667-116.053333-116.053333s52.906667-116.053333 116.053333-116.053334 116.053333 52.906667 116.053334 116.053334-52.906667 116.053333-116.053334 116.053333z m0-186.026667c-37.546667 0-68.266667 30.72-68.266666 68.266667s30.72 68.266667 68.266666 68.266667 68.266667-30.72 68.266667-68.266667-30.72-68.266667-68.266667-68.266667zM650.24 353.28c-64.853333 0-116.053333-52.906667-116.053333-116.053333s52.906667-116.053333 116.053333-116.053334c64.853333 0 116.053333 52.906667 116.053333 116.053334s-51.2 116.053333-116.053333 116.053333z m0-186.026667c-37.546667 0-68.266667 30.72-68.266667 68.266667s30.72 68.266667 68.266667 68.266667 68.266667-30.72 68.266667-68.266667-30.72-68.266667-68.266667-68.266667zM831.146667 544.426667c-64.853333 0-116.053333-52.906667-116.053334-116.053334s52.906667-116.053333 116.053334-116.053333 116.053333 52.906667 116.053333 116.053333-51.2 116.053333-116.053333 116.053334z m0-184.32c-37.546667 0-68.266667 30.72-68.266667 68.266666s30.72 68.266667 68.266667 68.266667 68.266667-30.72 68.266666-68.266667-30.72-68.266667-68.266666-68.266666z" p-id="20942"></path></svg>