<?xml version="1.0" standalone="no"?><!DOCTYPE svg PUBLIC "-//W3C//DTD SVG 1.1//EN" "http://www.w3.org/Graphics/SVG/1.1/DTD/svg11.dtd"><svg t="1603591067978" class="icon" viewBox="0 0 1024 1024" version="1.1" xmlns="http://www.w3.org/2000/svg" p-id="3168" xmlns:xlink="http://www.w3.org/1999/xlink" width="200" height="200"><defs><style type="text/css"></style></defs><path d="M512 921.6C286.72 921.6 102.4 737.28 102.4 512S286.72 102.4 512 102.4c225.28 0 409.6 184.32 409.6 409.6S737.28 921.6 512 921.6zM512 128c-211.2 0-384 172.8-384 384 0 211.2 172.8 384 384 384s384-172.8 384-384C896 300.8 723.2 128 512 128z" p-id="3169"></path><path d="M332.8 678.4c-3.84 0-6.4-1.28-8.96-3.84-3.84-3.84-5.12-5.12-3.84-46.08-3.84-10.24-34.56-42.24-60.16-69.12 0 0-1.28-1.28-1.28-1.28-10.24-12.8-8.96-23.04-6.4-29.44 6.4-14.08 24.32-16.64 28.16-17.92 2.56 0 3.84 0 6.4 1.28l81.92 34.56 70.4-70.4c1.28-1.28 2.56-1.28 3.84-2.56 7.68-3.84 6.4-16.64 6.4-21.76l-87.04-112.64c-11.52-11.52-20.48-24.32-15.36-35.84 3.84-7.68 10.24-11.52 21.76-11.52 2.56 0 6.4 0 8.96 0 1.28 0 2.56 0 3.84 0 1.28 0 2.56 0 3.84 0 3.84 0 11.52 0 188.16 98.56C601.6 359.68 683.52 320 691.2 320c5.12 0 5.12 0 70.4 39.68 5.12 2.56 7.68 8.96 5.12 14.08-16.64 64-202.24 154.88-363.52 225.28-7.68 3.84-15.36 6.4-20.48 8.96-1.28 11.52-5.12 28.16-14.08 48.64-5.12 12.8-15.36 20.48-28.16 20.48-1.28 0-3.84 0-5.12 0C335.36 678.4 334.08 678.4 332.8 678.4zM345.6 628.48c0 7.68 0 15.36 0 23.04 0-1.28 1.28-1.28 1.28-2.56 6.4-15.36 11.52-35.84 12.8-42.24 0-1.28-1.28-2.56-1.28-3.84 0-8.96 0-8.96 35.84-24.32 249.6-111.36 327.68-170.24 345.6-200.96-19.2-12.8-39.68-24.32-48.64-29.44-23.04 10.24-93.44 47.36-102.4 67.84-1.28 3.84-3.84 5.12-7.68 6.4C576 422.4 573.44 422.4 569.6 421.12c-64-35.84-166.4-92.16-185.6-99.84-3.84 0-3.84 0-6.4 0 1.28 1.28 2.56 2.56 3.84 3.84 0 0 0 0 1.28 1.28l89.6 115.2c1.28 1.28 2.56 3.84 2.56 5.12 2.56 14.08 2.56 39.68-17.92 51.2l-75.52 75.52c-3.84 3.84-8.96 5.12-14.08 2.56L280.32 537.6c-1.28 0-2.56 1.28-3.84 1.28 0 1.28 1.28 1.28 1.28 2.56C345.6 608 346.88 622.08 345.6 628.48z" p-id="3170"></path><path d="M576 742.4c-5.12 0-10.24-3.84-12.8-8.96l-38.4-140.8c-1.28-5.12 0-10.24 5.12-14.08l89.6-64c3.84-2.56 8.96-2.56 14.08-1.28 3.84 2.56 6.4 6.4 6.4 11.52-1.28 16.64-10.24 165.12-12.8 180.48-3.84 21.76-37.12 33.28-47.36 35.84C578.56 742.4 577.28 742.4 576 742.4zM551.68 593.92l32 119.04c8.96-3.84 16.64-8.96 16.64-11.52C604.16 691.2 609.28 614.4 613.12 550.4L551.68 593.92z" p-id="3171"></path></svg>