<?xml version="1.0" standalone="no"?><!DOCTYPE svg PUBLIC "-//W3C//DTD SVG 1.1//EN" "http://www.w3.org/Graphics/SVG/1.1/DTD/svg11.dtd"><svg t="1604394431891" class="icon" viewBox="0 0 1024 1024" version="1.1" xmlns="http://www.w3.org/2000/svg" p-id="15296" xmlns:xlink="http://www.w3.org/1999/xlink" width="200" height="200"><defs><style type="text/css"></style></defs><path d="M225.795072 799.98464c10.389504 16.93184 40.696832 65.271808 62.931968 100.738048 13.446144 21.42208 23.93088 38.139904 25.244672 40.338432 6.4 10.747904 17.183744 17.147904 29.782016 17.529856l0.882688 0c11.845632 0 23.632896-5.587968 35.442688-17.076224 27.573248-32.241664 26.88-48.243712 26.546176-55.933952l-0.048128-1.624064c0.202752-8.26368 0.154624-28.588032 0.106496-51.275776-0.070656-26.43968-0.14336-56.269824 0.166912-73.728l104.057856-100.140032c29.817856 81.821696 88.784896 240.929792 92.845056 251.534336 8.58624 21.781504 25.61536 25.602048 32.51712 26.248192 13.840384 1.242112 28.301312-4.417536 40.015872-16.121856 1.636352-1.741824 40.229888-42.846208 57.020416-63.290368 18.521088-22.28224 17.721344-42.103808 17.386496-50.536448-0.048128-2.69824-2.937856-50.702336-8.037376-135.344128-4.836352-80.031744-10.615808-176.11776-13.744128-230.416384l179.766272-179.802112c44.08832-43.956224 50.66752-89.740288 50.656256-113.133568 0-25.817088-7.571456-48.769024-20.22912-61.355008-12.562432-12.634112-36.516864-20.491264-62.52544-20.491264-23.346176 0-69.033984 6.50752-112.728064 50.12992L584.254464 295.928832c-46.476288-2.94912-123.451392-7.964672-195.05152-12.634112-91.077632-5.946368-169.736192-11.06944-173.270016-11.153408-1.242112-0.07168-2.794496-0.119808-4.513792-0.119808-16.384 0-31.239168 5.696512-45.377536 17.422336-20.37248 16.861184-61.55776 55.563264-63.444992 57.342976-11.5712 11.630592-17.398784 26.19904-16.013312 40.015872 0.907264 8.645632 5.56544 24.337408 26.343424 32.433152 10.078208 3.95264 169.257984 63.540224 253.564928 94.624768l-100.212736 103.371776c-4.262912 0.048128-9.147392 0.333824-14.84288 0.048128-18.473984 0-42.643456-0.335872-63.946752-0.646144-22.032384-0.310272-40.840192-0.61952-47.61088-0.381952l0.238592 6.114304-1.803264-6.114304-1.444864-0.023552c-10.066944 0-25.304064 3.08224-54.274048 27.34592l-2.579456 2.41152c-11.67872 11.7504-14.425088 23.547904-14.675968 31.381504-0.39424 11.82208 4.574208 22.473728 13.912064 29.973504C85.745664 712.620032 163.24608 762.082304 225.795072 799.98464zM252.389376 758.903808c-52.350976-31.691776-108.512256-67.372032-132.192256-82.849792 10.855424-8.406016 16.264192-10.53184 17.494016-10.938368l8.860672-0.023552c8.168448 0 21.256192 0.192512 36.122624 0.381952l4.119552 0.07168c29.568 0.43008 64.615424 0.93184 82.9696 0.549888 11.368448-0.239616 21.972992-4.847616 29.877248-13.016064L408.141824 541.146112c10.126336-10.42432 14.2336-25.124864 11.010048-39.299072-3.23584-14.186496-13.315072-25.637888-26.963968-30.65344-70.657024-25.972736-210.21696-78.144512-250.985472-93.549568 12.155904-11.344896 41.030656-38.117376 56.029184-50.536448 7.4752-6.173696 12.012544-6.173696 14.186496-6.173696 0.78848 0 1.504256 0.023552 2.62656 0.083968 6.090752 0.263168 94.21824 6.006784 171.981824 11.081728 73.05728 4.764672 151.71584 9.887744 197.905408 12.824576 12.384256 0.835584 24.25344-3.7376 32.970752-12.454912l181.497856-181.629952c31.22688-31.167488 62.394368-35.82464 78.181376-35.82464 17.410048 0 26.91584 5.254144 27.942912 6.162432 7.629824 7.785472 16.216064 58.811392-30.427136 105.311232L692.384768 408.23808c-8.609792 8.62208-13.160448 20.539392-12.454912 32.707584 2.936832 51.443712 8.477696 143.34976 13.254656 222.522368l0.64512 10.819584c3.463168 57.39008 7.785472 128.82432 8.000512 134.269952 0.202752 5.325824 0.370688 9.52832-6.317056 17.577984-12.204032 14.877696-38.105088 42.867712-50.16576 55.814144-14.87872-39.95648-66.526208-179.456-91.6736-248.69376-4.95616-13.66016-16.384-23.76192-30.534656-27.058176-13.94688-3.248128-28.993536 0.883712-39.359488 10.842112L371.1232 725.444608c-8.215552 7.929856-12.872704 18.557952-13.123584 29.9264-0.369664 17.74592-0.299008 49.437696-0.227328 78.26432 0.048128 21.424128 0.096256 41.50784-0.095232 49.366016-0.023552 1.36192 0 2.914304 0.237568 4.370432 0 0.048128-1.289216 5.111808-9.767936 16.050176l-17.959936-28.659712c-22.784-36.349952-53.998592-86.122496-63.456256-101.573632C263.172096 767.36 258.204672 762.440704 252.389376 758.903808z" p-id="15297"></path></svg>