<?xml version="1.0" standalone="no"?><!DOCTYPE svg PUBLIC "-//W3C//DTD SVG 1.1//EN" "http://www.w3.org/Graphics/SVG/1.1/DTD/svg11.dtd"><svg t="1604393993761" class="icon" viewBox="0 0 1024 1024" version="1.1" xmlns="http://www.w3.org/2000/svg" p-id="3034" xmlns:xlink="http://www.w3.org/1999/xlink" width="200" height="200"><defs><style type="text/css"></style></defs><path d="M917.32992 413.86496 760.4992 208.0256c-37.82656-49.664-134.35392-44.68736-145.32608-44.07296-8.67328 0.57856-15.98464 6.84544-17.95072 15.32416-0.71168 3.08224-18.25792 75.7248-84.82816 75.7248-71.68 0-84.096-71.38816-84.57728-74.33728-1.23392-8.13568-7.40352-14.63296-15.4624-16.32768-91.264-19.16416-137.67168 41.20064-139.03872 43.06944L102.62528 414.25408c-10.56256 12.8-14.88384 28.28288-12.16512 43.59168 2.6624 14.98112 12.16512 28.24192 26.10176 36.39808l125.60384 73.51808 0 240.32256c0 32.66048 26.64448 59.22304 59.37664 59.22304l415.28832 0c32.73728 0 59.37664-26.56768 59.37664-59.22304l0-242.63168 124.87168-71.34208c13.93664-7.94112 23.69536-21.16608 26.7776-36.26496C930.92352 442.7264 927.08864 426.68544 917.32992 413.86496zM881.5104 459.8272l-105.30304 60.15488L776.20736 450.9952c0-10.91072-8.832-19.74272-19.74272-19.74272-10.91072 0-19.74272 8.832-19.74272 19.74272l0 357.08416c0 10.7008-9.11872 19.74272-19.89632 19.74272L301.54752 827.82208c-10.97216 0-19.89632-8.84736-19.89632-19.74272L281.6512 450.9952c0-10.91072-8.832-19.74272-19.74272-19.74272s-19.74272 8.832-19.74272 19.74272l0 71.00928L136.4992 460.15488c-4.02944-2.35008-6.51776-5.55008-7.17312-9.216-0.65536-3.72224 0.67584-7.82848 3.75808-11.5456L304.34304 231.8336c0.3072-0.40448 28.91776-37.74976 87.64416-30.86336 11.02848 38.55872 45.64992 93.52192 120.41728 93.52192 68.9408 0 105.41568-53.44256 118.95296-91.47904 28.86144 0.19456 79.81568 5.39648 97.72544 28.93824l156.83584 205.85984c2.91328 3.81952 4.06528 8.13568 3.25632 12.16512C888.33536 453.98528 885.63712 457.47712 881.5104 459.8272z" p-id="3035"></path><path d="M509.19936 369.85344c106.28608 0 156.89216-109.56288 158.99136-114.2272 4.47488-9.94816 0.04096-21.632-9.89184-26.12224-9.984-4.4544-21.632-0.02048-26.12224 9.89184-0.40448 0.92672-41.91232 90.97728-122.97728 90.97728-80.58368 0-122.61376-90.10688-123.01824-91.01312-4.51072-9.89184-16.1536-14.24896-26.12224-9.81504-9.92768 4.51072-14.34112 16.1536-9.87136 26.0864C352.28672 260.29056 402.8928 369.85344 509.19936 369.85344z" p-id="3036"></path><path d="M683.0336 748.98944 335.33952 748.98944c-10.91072 0-19.74272 8.832-19.74272 19.74272 0 10.91072 8.832 19.74272 19.74272 19.74272l347.69408 0c10.91072 0 19.74272-8.832 19.74272-19.74272C702.77632 757.82144 693.94944 748.98944 683.0336 748.98944z" p-id="3037"></path></svg>