<?xml version="1.0" standalone="no"?><!DOCTYPE svg PUBLIC "-//W3C//DTD SVG 1.1//EN" "http://www.w3.org/Graphics/SVG/1.1/DTD/svg11.dtd"><svg t="1604394306374" class="icon" viewBox="0 0 1024 1024" version="1.1" xmlns="http://www.w3.org/2000/svg" p-id="11427" xmlns:xlink="http://www.w3.org/1999/xlink" width="200" height="200"><defs><style type="text/css"></style></defs><path d="M267.9 941c-5.4 0-16.1 0-21.4-5.3-10.7-5.4-21.4-16.1-26.8-32.1-5.4-5.4-5.4-16.1-5.4-21.4L225 662.8c0-10.7-5.4-26.8-10.7-37.5L75.2 459.4c-10.7-10.7-10.7-26.8-10.7-42.8 0-16.1 10.7-26.8 21.4-37.5 5.4 0 10.7-5.4 16.1-5.4l208.7-58.9c10.7-5.4 21.4-10.7 32.1-21.4l123.1-182c16.1-26.8 48.2-32.1 74.9-16.1l16.1 16.1 123.1 182c5.4 10.7 16.1 16.1 32.1 21.4l208.7 58.9c26.8 5.4 42.8 37.5 37.5 64.2 0 5.3-5.4 10.7-10.7 21.4L813.8 630.6c-5.4 10.7-10.7 21.4-10.7 37.5l10.7 219.4c0 32.1-21.4 53.5-53.5 53.5-10.7 0-16.1 0-21.4-5.3l-214.1-74.9c-10.7-5.4-26.8-5.4-37.5 0l-203.4 74.9c-5.3 0-10.7 5.3-16 5.3z m240.9-807.2L384.2 317.9c-10.8 21.7-32.5 37.9-59.6 48.7l-211.2 59.6 135.4 173.3c16.2 21.7 27.1 43.3 21.7 70.4l-5.4 222 205.8-81.2c21.7-10.8 48.7-10.8 75.8 0l205.8 75.8-10.8-222c0-27.1 5.4-54.2 21.7-70.4l135.4-173.3-211.2-59.6c-27.1-5.4-48.7-21.7-59.6-43.3L508.8 133.8z m0-7.2" p-id="11428"></path><path d="M508.7 684.2c-91 0-160.6-69.6-160.6-160.6v-26.8c0-14.8 12-26.8 26.8-26.8s26.8 12 26.8 26.8v25.3c0 58.8 46.8 107.7 105.6 108.5 59.5 0.8 108.4-47.7 108.4-107v-26.8c0-14.8 12-26.8 26.8-26.8s26.8 12 26.8 26.8v26.8c0 91-69.6 160.6-160.6 160.6z m0 0" p-id="11429"></path></svg>