<?xml version="1.0" standalone="no"?><!DOCTYPE svg PUBLIC "-//W3C//DTD SVG 1.1//EN" "http://www.w3.org/Graphics/SVG/1.1/DTD/svg11.dtd"><svg t="1604492524182" class="icon" viewBox="0 0 1024 1024" version="1.1" xmlns="http://www.w3.org/2000/svg" p-id="2907" xmlns:xlink="http://www.w3.org/1999/xlink" width="200" height="200"><defs><style type="text/css"></style></defs><path d="M821.248 1024H202.752c-61.952 0-112.64-51.2-112.64-113.664V113.664C90.624 50.688 140.8 0 202.752 0h617.984c61.952 0 112.64 51.2 112.64 113.664v796.672c0 62.976-50.176 113.664-112.128 113.664z m55.808-910.336c0-31.232-25.088-56.832-56.32-56.832H202.752c-31.232 0-56.32 25.6-56.32 56.832V256s125.44 58.368 272.384 78.336c20.48-31.232 55.808-49.664 93.184-50.176 38.912 0 73.216 19.968 93.184 50.176 146.944-19.968 271.872-78.848 271.872-78.848V113.664z m0 199.168s-115.2 53.248-253.952 75.776c0.512 3.072 1.024 6.144 1.024 9.728 0 62.976-50.176 113.664-112.128 113.664-61.952 0-112.64-51.2-112.64-113.664 0-3.072 0.512-6.144 1.024-9.216-87.552-14.848-172.544-39.936-253.952-75.776v596.992c0 31.232 25.088 56.832 56.32 56.832h617.984c31.232 0 56.32-25.6 56.32-56.832V312.832z m0 0" p-id="2908"></path></svg>