<?xml version="1.0" standalone="no"?><!DOCTYPE svg PUBLIC "-//W3C//DTD SVG 1.1//EN" "http://www.w3.org/Graphics/SVG/1.1/DTD/svg11.dtd"><svg t="1604394628492" class="icon" viewBox="0 0 1024 1024" version="1.1" xmlns="http://www.w3.org/2000/svg" p-id="21795" xmlns:xlink="http://www.w3.org/1999/xlink" width="200" height="200"><defs><style type="text/css"></style></defs><path d="M736 0H288C176.256 0 85.333 87.296 85.333 194.581V669.74c0 17.664 14.336 32 32 32s32-14.336 32-32V194.58C149.333 122.581 211.541 64 288 64h448c76.459 0 138.667 58.581 138.667 130.581v625.536C874.667 919.488 835.797 960 740.5 960H283.52c-96.555 0-134.187-39.21-134.187-139.883 0-17.664-14.336-32-32-32s-32 14.336-32 32C85.333 955.413 152.021 1024 283.52 1024h456.981c131.499 0 198.166-68.587 198.166-203.883V194.581C938.667 87.296 847.744 0 736 0z m48.292 176.625c-8.47-15.53-27.968-21.141-43.434-12.693-215.34 117.973-449.451 0.81-451.776-0.384-15.638-8.086-34.944-1.92-43.051 13.781-8.107 15.723-1.941 35.008 13.76 43.115 7.083 3.67 120.448 60.8 267.243 60.8 75.946 0 160.832-15.296 244.565-61.184 15.51-8.49 21.184-27.926 12.693-43.435z m-125.77 461.062c17.664 0 32-14.336 32-32s-14.336-32-32-32H571.61l88.277-132.757c9.792-14.72 5.803-34.581-8.917-44.373-14.72-9.792-34.56-5.782-44.374 8.917l-92.97 139.84-92.992-139.84c-9.792-14.677-29.654-18.688-44.374-8.917-14.72 9.792-18.71 29.653-8.917 44.373l88.277 132.757h-83.456c-17.664 0-32 14.336-32 32s14.336 32 32 32h111.168v53.91H372.164c-17.664 0-32 14.336-32 32s14.336 32 32 32h111.168v82.346c0 17.664 14.336 32 32 32s32-14.336 32-32v-82.346h111.19c17.664 0 32-14.336 32-32s-14.336-32-32-32h-111.19v-53.91h111.19z" fill="" p-id="21796"></path></svg>