<?xml version="1.0" standalone="no"?><!DOCTYPE svg PUBLIC "-//W3C//DTD SVG 1.1//EN" "http://www.w3.org/Graphics/SVG/1.1/DTD/svg11.dtd"><svg t="1603591085882" class="icon" viewBox="0 0 1024 1024" version="1.1" xmlns="http://www.w3.org/2000/svg" p-id="3931" xmlns:xlink="http://www.w3.org/1999/xlink" width="200" height="200"><defs><style type="text/css"></style></defs><path d="M799.183721 222.865857H784.675286a116.426663 116.426663 0 0 0-56.506968-20.151969C699.089026 106.016569 648.466068 85.630263 610.967012 85.630263c-23.523763 0-41.634236 10.361999-53.350068 19.947307-24.254404-26.888394-53.537334-40.511669-87.091544-40.511669-62.151525 0-110.88239 43.152822-139.104152 132.946918H225.064942c-64.611553 0-119.650077 57.047274-119.650077 121.898281v520.621355c0 31.15865 12.249999 60.263525 34.492582 81.953524 22.028713 21.481244 51.393507 33.31271 82.684164 33.312709h576.591087c31.293727 0 60.671825-11.884678 82.725097-33.464159 22.228257-21.751397 34.470069-50.890041 34.470069-82.044598V340.473415c0.001023-64.847937-52.572356-117.607558-117.194143-117.607558z m-188.216709-89.098247c27.300786-0.124843 65.240887 62.286602 65.240887 62.286601l-65.602114 1.958608s-16.802688-35.992749-25.536606-52.352345c5.275143-5.095042 14.461363-11.841699 25.897833-11.892864zM470.5254 113.204272c24.740474 0 46.257533 13.827937 63.954591 41.104163a23.826662 23.826662 0 0 0 2.277879 3.637853c7.482415 12.244882 14.57188 22.857591 20.669762 40.066531H384.598378c21.202904-59.128679 49.301869-84.808548 85.927022-84.808547z m312.908616 722.945363c0 37.777395-27.885094 66.472947-66.472948 66.472947H225.064942c-38.579667 0-66.471924-28.831652-66.471924-66.472947V317.662897c0-38.306444 28.535917-66.472947 66.471924-66.472948h93.061512c-2.318812 11.281951-2.366907 22.033829-4.00829 33.533744-11.789511 7.071046-19.040658 19.760043-19.040659 33.536814 0 21.582551 17.645892 39.141462 39.336914 39.141462 21.688975 0 39.334867-17.558911 39.334867-39.141462 0-10.340509-4.181229-20.306488-11.532661-27.632337 1.989307-13.691837 6.167466-26.438139 9.089006-39.437197H570.722426c2.819209 12.801561 5.276167 25.355481 7.194866 38.860052-7.720845 7.377014-12.112875 17.550725-12.112875 28.209482 0 21.583574 17.645892 39.142485 39.33589 39.142486 21.691021 0 39.33589-17.558911 39.33589-39.142486 0-13.393032-6.974855-25.900903-18.316158-33.05586-1.607614-11.664667 0.044002-22.581298-2.260483-34.014698h93.061512c14.84408 0 30.600949 3.963265 42.515303 12.883425a24.313755 24.313755 0 0 0 3.587712 2.892887c15.468296 13.265118 20.36891 30.30112 20.368909 50.696636v518.486738z m79.767741 0c0 32.299637-35.43914 72.857355-66.472947 79.765694 13.465686-19.202341 26.588565-55.866379 26.588565-79.765694V317.662897c0-14.748912-8.008394-39.615253-13.294794-53.17713 24.335245 11.208273 53.179177 52.256154 53.179176 79.767741v491.896127z" p-id="3932"></path></svg>