<?xml version="1.0" standalone="no"?><!DOCTYPE svg PUBLIC "-//W3C//DTD SVG 1.1//EN" "http://www.w3.org/Graphics/SVG/1.1/DTD/svg11.dtd"><svg t="1604396994746" class="icon" viewBox="0 0 1024 1024" version="1.1" xmlns="http://www.w3.org/2000/svg" p-id="33638" xmlns:xlink="http://www.w3.org/1999/xlink" width="200" height="200"><defs><style type="text/css"></style></defs><path d="M682.667 341.333v136.534H614.4V341.333H409.6v136.534h-68.267V341.333h-74.171l-26.283 443.734H783.12l-26.283-443.734h-74.171z m-337.92-68.266a170.735 170.735 0 0 1 334.506 0h109.773a34.133 34.133 0 0 1 34.065 32.085l30.31 512a34.133 34.133 0 0 1-34.064 36.181H204.663a34.133 34.133 0 0 1-34.065-36.181l30.31-512a34.133 34.133 0 0 1 34.066-32.085h109.773z m70.656 0h193.194a102.434 102.434 0 0 0-193.194 0z" p-id="33639"></path></svg>