<?xml version="1.0" standalone="no"?><!DOCTYPE svg PUBLIC "-//W3C//DTD SVG 1.1//EN" "http://www.w3.org/Graphics/SVG/1.1/DTD/svg11.dtd"><svg t="1603591127780" class="icon" viewBox="0 0 1024 1024" version="1.1" xmlns="http://www.w3.org/2000/svg" p-id="5473" xmlns:xlink="http://www.w3.org/1999/xlink" width="200" height="200"><defs><style type="text/css"></style></defs><path d="M509.15 1020.171c-1.146 0-2.289-0.005-3.433-0.013-46.167-0.324-91.943-7.078-136.057-20.073-42.019-12.378-78.445-27.41-111.36-45.956-31.24-17.602-60.801-38.827-87.86-63.086-26.64-23.884-50.902-50.744-72.113-79.837-21.184-29.056-39.337-60.354-53.956-93.027-14.813-33.108-26.016-67.675-33.296-102.74-8.791-42.348-12.121-83.576-9.895-122.54 0.059-1.031 0.123-2.058 0.193-3.084l59.862 4.067a248.2 248.2 0 0 0-0.153 2.443c-1.927 33.727 1.014 69.7 8.741 106.916 6.403 30.839 16.266 61.265 29.317 90.434 12.911 28.855 28.95 56.507 47.67 82.184 18.739 25.703 40.165 49.426 63.682 70.509 23.818 21.354 49.813 40.022 77.261 55.488 28.913 16.29 61.25 29.595 98.862 40.675 38.743 11.413 78.957 17.345 119.524 17.63a435.13 435.13 0 0 0 30.391-0.852c3.697-0.233 7.345-0.4 10.872-0.562 6.646-0.304 12.923-0.59 18.76-1.277a433.327 433.327 0 0 0 47.268-8.254c30.735-7.141 60.963-17.701 89.844-31.389 28.51-13.513 55.763-30.098 81-49.294 25.207-19.174 48.423-40.965 69.003-64.769 20.793-24.05 38.931-50.199 53.91-77.721l52.699 28.684c-17.027 31.285-37.625 60.986-61.221 88.278-23.293 26.941-49.559 51.598-78.067 73.282-28.54 21.708-59.367 40.468-91.627 55.758-32.752 15.522-67.057 27.505-101.964 35.613a493.802 493.802 0 0 1-53.833 9.4c-7.969 0.937-15.627 1.287-23.034 1.625-3.421 0.156-6.651 0.304-9.828 0.505a495.602 495.602 0 0 1-31.162 0.983zM287.419 414.75h449.162v60H287.419z" fill="" p-id="5474"></path><path d="M287.419 576.046h449.162v60H287.419z" fill="" p-id="5475"></path><path d="M482 421.976h60v393.052h-60z" fill="" p-id="5476"></path><path d="M313.573 261.891L547.026 447.67l-37.362 46.95-233.453-185.778z" fill="" p-id="5477"></path><path d="M471.706 447.674l233.453-185.778 37.362 46.95-233.453 185.778zM119.189 549.414c9.281 25.357-7.012 33.515-36.205 18.128l-45.132-23.786C8.658 528.37-6.394 496.979 4.402 474s37.243-25.785 58.771-6.235 46.735 56.292 56.016 81.649zM900.279 474.706c-10.9-24.704 4.831-33.898 34.958-20.431l46.575 20.82c30.127 13.467 47.177 43.819 37.888 67.448-9.289 23.629-35.499 28.139-58.245 10.021s-50.276-53.154-61.176-77.858z" fill="" p-id="5478"></path><path d="M515.36 0c1.146 0 2.289 0.005 3.433 0.013 46.167 0.324 91.943 7.078 136.057 20.073 42.019 12.378 78.445 27.41 111.36 45.956 31.24 17.602 60.801 38.827 87.86 63.086 26.64 23.884 50.902 50.744 72.113 79.837 21.184 29.056 39.337 60.354 53.956 93.027 14.813 33.108 26.016 67.675 33.296 102.74 8.792 42.348 12.122 83.575 9.896 122.539a281.892 281.892 0 0 1-0.193 3.084l-59.862-4.067a248.2 248.2 0 0 0 0.153-2.443c1.927-33.727-1.014-69.7-8.741-106.916-6.403-30.839-16.266-61.265-29.317-90.434-12.911-28.855-28.95-56.507-47.67-82.184-18.739-25.703-40.165-49.426-63.682-70.509-23.818-21.354-49.813-40.022-77.261-55.488-28.913-16.29-61.25-29.595-98.862-40.675-38.743-11.413-78.957-17.345-119.524-17.63a435.13 435.13 0 0 0-30.391 0.852c-3.697 0.233-7.345 0.4-10.872 0.562-6.646 0.304-12.923 0.59-18.76 1.277a433.327 433.327 0 0 0-47.268 8.254c-30.735 7.141-60.963 17.701-89.844 31.389-28.51 13.513-55.763 30.098-81 49.294-25.207 19.174-48.423 40.965-69.003 64.769-20.793 24.05-38.931 50.199-53.91 77.721l-52.699-28.684c17.027-31.285 37.625-60.986 61.221-88.278 23.293-26.941 49.559-51.598 78.067-73.282 28.54-21.708 59.367-40.468 91.627-55.758 32.752-15.522 67.057-27.505 101.964-35.613a493.802 493.802 0 0 1 53.833-9.4c7.969-0.937 15.627-1.287 23.034-1.625 3.421-0.156 6.651-0.304 9.828-0.505A496.328 496.328 0 0 1 515.36 0z" fill="" p-id="5479"></path></svg>