<?xml version="1.0" standalone="no"?><!DOCTYPE svg PUBLIC "-//W3C//DTD SVG 1.1//EN" "http://www.w3.org/Graphics/SVG/1.1/DTD/svg11.dtd"><svg t="1604394647406" class="icon" viewBox="0 0 1024 1024" version="1.1" xmlns="http://www.w3.org/2000/svg" p-id="22579" xmlns:xlink="http://www.w3.org/1999/xlink" width="200" height="200"><defs><style type="text/css"></style></defs><path d="M945.6 529.6c-17.6-1.6-33.6 11.2-36.8 28.8C886.4 758.4 715.2 912 512 912 291.2 912 112 732.8 112 512S291.2 112 512 112c195.2 0 361.6 140.8 393.6 332.8 3.2 17.6 19.2 28.8 36.8 25.6 17.6-3.2 28.8-19.2 25.6-36.8C931.2 211.2 739.2 48 512 48 256 48 48 256 48 512s208 464 464 464c236.8 0 435.2-177.6 460.8-411.2 1.6-17.6-11.2-33.6-27.2-35.2z" p-id="22580"></path><path d="M776 435.2V432l-1.6-1.6-1.6-1.6-1.6-1.6-1.6-1.6-1.6-1.6v-4.8l-1.6-1.6-113.6-105.6-1.6-1.6c-12.8-9.6-32-8-43.2 3.2-11.2 12.8-11.2 30.4 0 43.2l1.6 1.6 52.8 48h-384c-16 1.6-30.4 14.4-30.4 32s14.4 32 32 32h473.6l3.2-1.6 1.6-1.6h1.6l1.6-1.6 1.6-1.6 1.6-1.6 1.6-1.6 1.6-1.6 1.6-1.6v-1.6l1.6-1.6 1.6-1.6V448v-3.2-3.2c3.2-3.2 3.2-4.8 3.2-6.4zM745.6 632c16-1.6 30.4-14.4 30.4-32s-14.4-32-32-32H270.4l-3.2 1.6-1.6 1.6-3.2 1.6-1.6 1.6-1.6 1.6-3.2 1.6v1.6l-1.6 1.6-1.6 1.6-1.6 3.2-1.6 3.2-1.6 1.6V611.2l1.6 1.6 1.6 1.6 1.6 3.2v1.6l1.6 1.6 1.6 1.6 113.6 105.6 1.6 1.6c12.8 9.6 32 8 43.2-3.2 11.2-12.8 11.2-30.4 0-43.2l-1.6-1.6-52.8-48h382.4l3.2-1.6z" p-id="22581"></path></svg>