<?xml version="1.0" standalone="no"?><!DOCTYPE svg PUBLIC "-//W3C//DTD SVG 1.1//EN" "http://www.w3.org/Graphics/SVG/1.1/DTD/svg11.dtd"><svg t="1604394403902" class="icon" viewBox="0 0 1024 1024" version="1.1" xmlns="http://www.w3.org/2000/svg" p-id="14530" xmlns:xlink="http://www.w3.org/1999/xlink" width="200" height="200"><defs><style type="text/css"></style></defs><path d="M713.569 481.456a124.151 124.151 0 0 1 2.768 45.842l6.858 21.053c8.431 26.31 9.677 43.761 23.798 50.005 18.667 8.203 104.126-63.037 141.997 2.41 17.372 30.144-0.609 60.496-22.985 81.423-34.411 32.078-116.573 72.509-161.07 58.415-24.103-7.668-56.609-31.238-74.059-50.237l-8.025 13.435c-10.817 18.821-9.422 19.478 3.25 30.249 32.636 27.684 76.091 64.638 68.524 113.298-0.711 5.461-3.023 11.226-6.35 17.118-12.775 22.045-55.11 64.382-101.435 98.948-36.675 27.403-114.949 80.077-162.366 52.774-34.971-20.112-33.116-50.359-14.273-83.101 15.161-26.388 43.046-53.996 64.638-75.431 9.804-9.727 17.396-15.138 13.129-19.759-16.562-17.779-47.109-36.927-68.064-49.904-57.884 52.217-133.871 117.26-202.16 154.161-23.846 12.9-65.702 30.45-87.519 4.574-48.053-59.051 125.919-241.933 161.807-283.612l53.488-61.46c11.328-24.56 46.374-72.817 62.706-98.388-9.194-1.677-18.718-2.742-27.223-2.82-3.682-0.023-64.205 125.946-131.584 86.958-31.441-18.209-32.052-56.965-24.356-88.611 9.779-40.355 42.236-103.645 78.171-125.359 32.609-19.838 93.131-26.692 153.579-24.177 28.774 1.197 63.493 4.977 98.009 13.029-49.271-33.524-81.651-90.113-81.651-154.161 0-102.706 83.478-186.239 186.188-186.239 102.706 0 186.289 83.534 186.289 186.239 0 102.679-83.581 186.266-186.289 186.266-6.809 0-13.565-0.353-20.218-1.091 36.014 20.037 64.382 48.431 74.438 88.154zM372.785 755.315c-16.636-14.425-30.298-31.85-37.993-56.127l-0.306 0.38c-83.556 97.17-166.556 187.177-155.558 199.241 11.1 12.164 174.323-126.175 193.856-143.494z m286.556-677.32c-71.85 0-130.083 58.287-130.083 130.135 0 71.975 58.111 130.183 130.083 130.183 72.05 0 130.183-58.159 130.183-130.183 0-72.023-58.134-130.135-130.183-130.135z m23.823 524.858l-21.689 36.369c14.527 17.219 38.704 41.245 60.346 48.155 13.461 4.267 46.681-7.595 76.065-24.508 11.708-6.756 35.174-22.476 41.143-35.045-5.814-1.422-25.319 5.206-43.556 11.43-54.223 18.413-86.884 21.307-112.306-36.391zM454.588 405.088c-50.794-2.082-99.735 2.41-122.516 16.203-20.929 12.523-65.577 95.393-54.324 117.817 5.029 1.245 25.169-24.433 42.133-46.146 20.167-25.803 37.942-48.533 61.561-48.306 45.641 0.306 71.238 11.886 110.4 31.29-32.481 50.845-68.42 103.266-98.593 154.847-8.662 14.731-10.336 31.873-6.274 47.746 15.185 59.581 156.244 93.613 163.607 163.202 1.828 17.572-14.854 34.287-36.345 55.594-5.919 5.867-72.966 59.836-61.945 70.428 19.733 19.099 80.306-33.754 101.03-49.247 83.761-62.603 115.556-74.818 36.623-141.743-28.164-23.846-50.159-42.719-33.883-70.044l95.901-160.612c9.397-15.926 11.504-34.337 7.289-51.075-17.572-69.637-147.075-87.545-204.675-89.958z" p-id="14531"></path></svg>