<?xml version="1.0" standalone="no"?><!DOCTYPE svg PUBLIC "-//W3C//DTD SVG 1.1//EN" "http://www.w3.org/Graphics/SVG/1.1/DTD/svg11.dtd"><svg t="1604394773769" class="icon" viewBox="0 0 1024 1024" version="1.1" xmlns="http://www.w3.org/2000/svg" p-id="24752" xmlns:xlink="http://www.w3.org/1999/xlink" width="200" height="200"><defs><style type="text/css"></style></defs><path d="M695.168 335.888c-6.72-6.736-15.68-10.448-25.2-10.448s-18.464 3.712-25.2 10.448l-93.792 93.792-93.776-93.76A35.408 35.408 0 0 0 432 325.456c-9.52 0-18.48 3.696-25.2 10.432a35.68 35.68 0 0 0 0 50.4l58.128 58.128h-56.72a6.896 6.896 0 0 0-6.912 6.896v57.488c0 3.808 3.088 6.88 6.912 6.88h107.136v47.728h-107.136a6.896 6.896 0 0 0-6.912 6.896v57.488c0 3.808 3.088 6.88 6.912 6.88h107.136v107.168c0 19.648 16 35.632 35.632 35.632 19.664 0 35.648-16 35.648-35.632v-107.152h107.152a6.912 6.912 0 0 0 6.88-6.896v-57.488a6.912 6.912 0 0 0-6.88-6.896h-107.152v-47.712h107.152a6.912 6.912 0 0 0 6.88-6.912v-57.472a6.896 6.896 0 0 0-6.88-6.896h-56.752l58.144-58.144a35.68 35.68 0 0 0 0-50.4z m291.664-7.712a471.248 471.248 0 0 0-101.328-150.304 471.2 471.2 0 0 0-150.304-101.312A469.92 469.92 0 0 0 551.12 39.36c-63.824 0-125.76 12.512-184.064 37.184a471.168 471.168 0 0 0-150.288 101.312 471.248 471.248 0 0 0-124.976 221.6l-23.568-53.024a35.68 35.68 0 0 0-47.04-18.096c-8.688 3.856-15.36 10.88-18.784 19.76a35.424 35.424 0 0 0 0.688 27.28l73.056 164.432a33.84 33.84 0 0 0 3.952 6.88 26.368 26.368 0 0 0 1.376 1.76c0.384 0.48 0.8 0.96 1.248 1.44l0.112 0.128a51.2 51.2 0 0 0 1.36 1.376l0.096 0.08 0.912 0.848a29.344 29.344 0 0 0 2.464 2c0.624 0.48 1.28 0.912 1.984 1.376l0.128 0.08c0.64 0.4 1.296 0.8 1.984 1.152l0.208 0.128c1.456 0.784 2.96 1.456 4.48 2.016 0.032 0.032 0.08 0.032 0.112 0.048 0.64 0.24 1.328 0.464 2.08 0.688l0.208 0.064 0.192 0.048c0.672 0.192 1.312 0.352 1.92 0.496h0.016l0.304 0.08 0.128 0.032a37.184 37.184 0 0 0 2.88 0.48h0.128l1.28 0.16h0.16a22.608 22.608 0 0 0 2.208 0.128h0.096l0.72 0.032c0.928 0 1.92-0.048 2.976-0.144h0.064a38.368 38.368 0 0 0 6.56-1.2h0.064c0.704-0.224 1.424-0.448 2.144-0.704l0.128-0.048a34.32 34.32 0 0 0 2.496-0.992c0.032 0 0.064 0 0.08-0.032 0.112-0.032 0.208-0.096 0.32-0.144a27.088 27.088 0 0 0 3.104-1.6 7.424 7.424 0 0 0 0.32-0.208l0.08-0.048c1.952-1.168 3.744-2.496 5.392-3.952l135.36-118.592a35.664 35.664 0 1 0-46.976-53.6l-64.256 56.288c35.952-186.976 202.192-325.712 394.4-325.712 221.44 0 401.584 180.16 401.584 401.6 0 221.44-180.16 401.584-401.6 401.584a401.664 401.664 0 0 1-261.264-96.592 35.664 35.664 0 0 0-46.4 54.112 472.992 472.992 0 0 0 307.68 113.76c63.808 0 125.744-12.512 184.064-37.184a471.232 471.232 0 0 0 150.288-101.328 471.184 471.184 0 0 0 101.328-150.288A469.76 469.76 0 0 0 1024 512.256c0-63.824-12.512-125.76-37.168-184.08z" p-id="24753"></path></svg>