<?xml version="1.0" standalone="no"?><!DOCTYPE svg PUBLIC "-//W3C//DTD SVG 1.1//EN" "http://www.w3.org/Graphics/SVG/1.1/DTD/svg11.dtd"><svg t="1603591164606" class="icon" viewBox="0 0 1024 1024" version="1.1" xmlns="http://www.w3.org/2000/svg" p-id="6251" xmlns:xlink="http://www.w3.org/1999/xlink" width="200" height="200"><defs><style type="text/css"></style></defs><path d="M1017.584 595.209c-11.009-15.229-32.292-18.715-47.706-7.707l-60.733 43.668c10.459-38.348 15.963-77.98 15.963-118.162 0-245.315-199.628-444.759-444.759-444.759-245.315 0-444.759 199.444-444.759 444.759s199.628 444.759 444.759 444.759c77.613 0 153.574-20.367 220.545-58.715 3.669-0.734 7.156-1.835 10.459-3.853 19.082-11.376 37.43-24.22 54.494-38.348 14.495-11.926 16.697-33.394 4.587-48.073-11.926-14.495-33.394-16.697-48.073-4.587-13.394 11.009-27.889 20.917-42.751 30.091-2.202 0.734-4.587 1.101-6.789 2.385-57.98 34.678-124.585 52.843-192.656 52.843-207.701 0-376.505-168.987-376.505-376.505S272.647 136.5 480.348 136.5s376.505 168.803 376.505 376.505a375.95 375.95 0 0 1-25.687 136.694L782.91 533.738c-7.34-17.43-27.339-25.504-44.586-18.348-17.43 7.156-25.687 27.155-18.348 44.586l76.879 184.399c0.734 2.018 2.018 3.486 3.119 5.321 0.367 0.55 0.367 1.101 0.734 1.468 0.183 0.183 0.367 0.183 0.367 0.367 2.935 3.853 6.606 6.973 10.826 9.358l2.202 1.101c3.486 1.651 7.34 2.935 11.376 3.302 0.734 0 1.284-0.183 2.018 0 0.367 0 0.55 0.183 0.917 0.183 0.734 0 1.468-0.183 2.202-0.367 2.569-0.183 5.137-0.55 7.523-1.101 0.55-0.183 1.101-0.367 1.468-0.55a30.327 30.327 0 0 0 7.707-3.853l1.101-0.55 161.463-116.144c15.229-11.193 18.715-32.476 7.707-47.706zM613.007 365.307c13.578-13.027 13.945-34.678 0.734-48.256-13.027-13.578-34.678-13.945-48.256-0.734l-85.136 82.199-84.953-82.199c-13.578-13.027-35.229-12.844-48.256 0.734-13.027 13.578-12.844 35.229 0.734 48.256l95.777 92.475v20h-68.255c-18.898 0-34.128 15.229-34.128 34.128s15.229 34.128 34.128 34.128h68.255v34.128h-68.255c-18.898 0-34.128 15.229-34.128 34.128s15.229 34.128 34.128 34.128h68.255v71.742c0 18.898 15.229 34.128 34.128 34.128s34.128-15.229 34.128-34.128v-71.742h68.255c18.898 0 34.128-15.229 34.128-34.128s-15.229-34.128-34.128-34.128h-68.255v-34.128h68.255c18.898 0 34.128-15.229 34.128-34.128s-15.229-34.128-34.128-34.128h-68.255v-14.678l101.099-97.796z" p-id="6252"></path></svg>