<?xml version="1.0" standalone="no"?><!DOCTYPE svg PUBLIC "-//W3C//DTD SVG 1.1//EN" "http://www.w3.org/Graphics/SVG/1.1/DTD/svg11.dtd"><svg t="1604394471607" class="icon" viewBox="0 0 1024 1024" version="1.1" xmlns="http://www.w3.org/2000/svg" p-id="16810" xmlns:xlink="http://www.w3.org/1999/xlink" width="200" height="200"><defs><style type="text/css"></style></defs><path d="M915.3024 911.4624h26.8288c18.0224 0.1024 30.72 12.8 30.6688 30.6176 0 17.7152-12.9536 30.72-30.72 30.72H81.9712c-16.0768 0-28.3136-10.3424-30.4128-25.4464-2.2528-16.1792 6.144-30.5664 20.6336-34.7648a38.4512 38.4512 0 0 1 10.0352-1.0752c8.5504-0.1536 17.0496-0.0512 26.5728-0.0512v-9.0624V144.9984c0-44.6976 26.6752-81.408 66.7136-91.3408 6.912-1.7408 14.1824-2.3552 21.2992-2.3552C330.0352 51.2 463.2064 51.2 596.48 51.2512c50.8928 0 88.3712 40.192 88.3712 94.72v764.928h172.5952c0.1024-2.048 0.3072-4.352 0.3072-6.6048V453.9392c0-21.6576-11.6224-34.0992-31.744-34.0992-18.3296 0-36.6592 0.1536-54.9376-0.1024-15.1552-0.2048-26.7776-11.8784-28.5184-27.8528a30.5664 30.5664 0 0 1 21.5552-32.4608 34.6112 34.6112 0 0 1 8.8576-0.9216h54.9376c49.3568 0.1024 87.3984 40.4992 87.4496 93.2352v459.7248z m-749.056-0.4096h460.8c0.0512-2.4576 0.2048-4.5056 0.2048-6.6048V146.432c0-21.1968-11.6736-33.7408-31.4368-33.7408H197.376a36.1472 36.1472 0 0 0-9.4208 1.024c-14.1824 3.8912-21.6576 15.6672-21.6576 33.6896V911.0528zM396.9536 266.1376c-28.2624 0-56.5248 0.1024-84.7872-0.0512-15.7696-0.1024-27.3408-9.728-29.952-24.4736-3.5328-19.7632 9.728-36.864 28.9792-36.9152 30.464-0.2048 60.928-0.0512 91.3408-0.0512 26.6752 0 53.3504-0.1024 80.0256 0 12.8512 0.1024 23.552 8.1408 27.6992 20.2752a32.3584 32.3584 0 0 1-8.6016 34.0992c-6.2976 5.632-13.7216 7.168-21.7088 7.168-27.648-0.1536-55.296-0.0512-82.944-0.0512zM396.4928 419.84c-28.4672 0-56.9344 0.1024-85.4016-0.0512-19.2512-0.1536-32.4608-17.2032-28.928-36.9664 2.4576-13.6704 13.7216-24.2176 27.0336-24.2176a28595.712 28595.712 0 0 1 174.9504 0c15.6672 0 27.648 13.6704 27.648 30.4128 0 17.1008-12.288 30.6176-28.7232 30.72-28.8768 0.256-57.7536 0.0512-86.5792 0.1024zM396.288 665.6c29.2352 0 58.5216-0.3072 87.7568 0.1536 20.992 0.256 34.304 23.9104 24.9344 43.8272a28.2624 28.2624 0 0 1-27.648 17.408c-56.32-0.1024-112.64-0.0512-168.96-0.0512h-2.3552a29.952 29.952 0 0 1-28.5696-30.5664c-0.1024-16.64 12.288-30.5152 28.2624-30.72 28.8768-0.2048 57.7024 0 86.528 0z m0.256-92.3648c-28.416 0-56.8832 0.2048-85.3504 0-21.4016-0.2048-35.328-21.1968-27.648-41.6256 4.7104-12.7488 14.0288-19.6608 26.7264-19.712 57.5488-0.2048 115.0464-0.256 172.544 0 16.896 0.0512 29.184 13.7728 28.9792 31.232-0.1536 17.0496-12.3904 29.952-29.2352 30.0544-28.672 0.256-57.344 0.0512-86.016 0.0512z" p-id="16811"></path></svg>