<?xml version="1.0" standalone="no"?><!DOCTYPE svg PUBLIC "-//W3C//DTD SVG 1.1//EN" "http://www.w3.org/Graphics/SVG/1.1/DTD/svg11.dtd"><svg t="1603591032135" class="icon" viewBox="0 0 1024 1024" version="1.1" xmlns="http://www.w3.org/2000/svg" p-id="1516" xmlns:xlink="http://www.w3.org/1999/xlink" width="200" height="200"><defs><style type="text/css"></style></defs><path d="M509.56 286.96c-11.96 0-21.66 9.7-21.66 21.69v144.12c0 41.87-34.98 75.88-78 75.88s-78.02-34.01-78.02-75.88V308.65c0-11.99-9.7-21.69-21.66-21.69s-21.66 9.7-21.66 21.69v144.12c0 46.53 27.54 86.51 67.21 106.15l-16.48 137.2c0 43.93 31.67 79.72 70.61 79.72s70.61-35.79 70.5-82.12l-14.98-135.55c38.89-19.89 65.8-59.43 65.8-105.4V308.65c0-11.99-9.7-21.69-21.66-21.69zM437.2 696.12c0 19.74-12.49 36.35-27.29 36.35-14.8 0-27.29-16.61-27.43-33.73l15.5-127.91c3.98 0.39 7.85 1.19 11.93 1.19 4.56 0 8.89-0.84 13.31-1.32l13.98 125.42z" p-id="1517"></path><path d="M379.91 466.03c11.82 0 21.41-9.59 21.41-21.41V283.28c0-11.82-9.59-21.41-21.41-21.41s-21.41 9.59-21.41 21.41v161.34c0 11.82 9.59 21.41 21.41 21.41zM439.87 466.03c11.82 0 21.41-9.59 21.41-21.41V283.28c0-11.82-9.59-21.41-21.41-21.41s-21.41 9.59-21.41 21.41v161.34c0 11.82 9.59 21.41 21.41 21.41zM694.74 246.77c-15.69 0-30.16 9.2-37.27 24.42l-88.73 216.42c-7.86 19.29 0.17 41.03 18.68 50.51l30.5 15.78a47.916 47.916 0 0 1 25.92 45.88l-8.31 124.1c-0.92 13.94 3.82 27.26 13.38 37.46 9.53 10.26 22.5 15.89 36.52 15.89 13.46 0 26.04-5.24 35.37-14.66 9.45-9.48 14.63-22.02 14.63-35.35V287.46c0.01-22.41-18.25-40.69-40.69-40.69z m-2.62 480.46l-6.69 6.63-6.63-7.08 8.31-124.1c2.4-36.41-16.98-70.69-49.34-87.31L608.85 504l83.26-203.1v426.33z" p-id="1518"></path><path d="M512.01 71.99C269.39 71.99 72 269.34 72 511.97s197.39 440.04 440.01 440.04C754.61 952.01 952 754.6 952 511.97S754.61 71.99 512.01 71.99z m0 822.94c-211.16 0-382.92-171.77-382.92-382.95 0-211.13 171.77-382.9 382.92-382.9 211.13 0 382.9 171.77 382.9 382.9 0 211.18-171.77 382.95-382.9 382.95z" p-id="1519"></path></svg>