<?xml version="1.0" standalone="no"?><!DOCTYPE svg PUBLIC "-//W3C//DTD SVG 1.1//EN" "http://www.w3.org/Graphics/SVG/1.1/DTD/svg11.dtd"><svg t="1604394108685" class="icon" viewBox="0 0 1024 1024" version="1.1" xmlns="http://www.w3.org/2000/svg" p-id="7108" xmlns:xlink="http://www.w3.org/1999/xlink" width="200" height="200"><defs><style type="text/css"></style></defs><path d="M123.887 375l9.914 116.33c9.05 106.19 82.318 195.955 184.543 226.095C380.688 735.806 445.202 745 512.049 745c66.799 0 131.261-9.18 193.548-27.536C807.853 687.331 881.146 597.547 890.2 491.33L900.113 375H123.887zM512 841h169v-60.188C626.184 793.604 569.867 800 512.049 800 454.2 800 397.85 793.598 343 780.793V841h338v-73h55v96c0 17.673-15.429 32-34.462 32H322.462C303.429 896 288 881.673 288 864v-96h55v73h169z m-216.295-73C175.449 729.452 89.765 622.308 79 496L66.959 354.717c-1.5-17.609 11.558-33.1 29.167-34.601a32 32 0 0 1 2.717-0.116h59.197C284.16 177.661 401.78 105.5 512 105.5c110.22 0 227.841 72.161 353.96 214.5h59.197c17.673 0 32 14.327 32 32a32 32 0 0 1-0.116 2.717L945 496c-10.763 126.291-96.418 233.424-216.638 272H736v96c0 17.673-15.429 32-34.462 32H322.462C303.429 896 288 881.673 288 864v-96h7.705zM219.04 320H804.96C697.412 206.483 599.473 150.5 512 150.5c-87.473 0-185.412 55.983-292.959 169.5z m249.301-120.979l0.574 0.82c6.969 9.952 4.55 23.67-5.403 30.64l-37.68 26.384c-9.954 6.97-23.672 4.55-30.64-5.403l-0.574-0.819c-6.97-9.953-4.55-23.67 5.402-30.64l37.681-26.384c9.953-6.97 23.671-4.55 30.64 5.402zM552 204.92l0.5-0.866c6.075-10.523 19.53-14.128 30.053-8.053l39.837 23c10.522 6.075 14.127 19.53 8.052 30.053l-0.5 0.866c-6.075 10.522-19.53 14.127-30.052 8.052l-39.837-23c-10.523-6.075-14.128-19.53-8.053-30.052z" p-id="7109"></path></svg>